<?xml version="1.0" encoding="UTF-8" standalone="no"?>
<!-- Generator: Adobe Illustrator 18.1.1, SVG Export Plug-In . SVG Version: 6.00 Build 0)  -->

<svg
   xmlns:dc="http://purl.org/dc/elements/1.1/"
   xmlns:cc="http://creativecommons.org/ns#"
   xmlns:rdf="http://www.w3.org/1999/02/22-rdf-syntax-ns#"
   xmlns:svg="http://www.w3.org/2000/svg"
   xmlns="http://www.w3.org/2000/svg"
   xmlns:sodipodi="http://sodipodi.sourceforge.net/DTD/sodipodi-0.dtd"
   xmlns:inkscape="http://www.inkscape.org/namespaces/inkscape"
   version="1.1"
   id="Layer_1"
   x="0px"
   y="0px"
   width="32px"
   height="32px"
   viewBox="0 0 32 32"
   enable-background="new 0 0 32 32"
   xml:space="preserve"
   inkscape:version="0.91 r13725"
   sodipodi:docname="facebook_logo.svg"><metadata
     id="metadata8"><rdf:RDF><cc:Work
         rdf:about=""><dc:format>image/svg+xml</dc:format><dc:type
           rdf:resource="http://purl.org/dc/dcmitype/StillImage" /><dc:title /></cc:Work></rdf:RDF></metadata><defs
     id="defs6" /><sodipodi:namedview
     pagecolor="#ffffff"
     bordercolor="#666666"
     borderopacity="1"
     objecttolerance="10"
     gridtolerance="10"
     guidetolerance="10"
     inkscape:pageopacity="0"
     inkscape:pageshadow="2"
     inkscape:window-width="1920"
     inkscape:window-height="1017"
     id="namedview4"
     showgrid="false"
     inkscape:zoom="7.375"
     inkscape:cx="16"
     inkscape:cy="16"
     inkscape:window-x="-8"
     inkscape:window-y="-8"
     inkscape:window-maximized="1"
     inkscape:current-layer="Layer_1" /><path
     id="White_2_"
     d="M 48.10262,-18 2.0369188,-18 C 0.94011635,-18 0,-17.0625 0,-15.96875 L 0,29.8125 C 0,31.0625 0.94011635,32 2.0369188,32 l 24.5997112,0 0,-18.75 -6.267442,0 0,-7.8125 6.267442,0 0,-6.25 c 0,-6.40625 4.073838,-9.6875 9.871222,-9.6875 2.820349,0 5.17064,0.3125 5.797384,0.3125 l 0,6.71875 -4.073838,0 c -3.133721,0 -3.917151,1.5625 -3.917151,3.75 l 0,5.15625 7.834303,0 -1.566861,7.8125 -6.267442,0 0.156686,18.75 13.475001,0 c 1.096802,0 2.036919,-0.9375 2.036919,-2.03125 l 0,-45.9375 C 50.139539,-17.0625 49.199423,-18 48.10262,-18 Z"
     style="fill:#0044aa"
     inkscape:connector-curvature="0" /></svg>