<?xml version="1.0" encoding="UTF-8" standalone="no"?>
<!-- Generator: Adobe Illustrator 18.1.1, SVG Export Plug-In . SVG Version: 6.00 Build 0)  -->

<svg
   xmlns:dc="http://purl.org/dc/elements/1.1/"
   xmlns:cc="http://creativecommons.org/ns#"
   xmlns:rdf="http://www.w3.org/1999/02/22-rdf-syntax-ns#"
   xmlns:svg="http://www.w3.org/2000/svg"
   xmlns="http://www.w3.org/2000/svg"
   xmlns:sodipodi="http://sodipodi.sourceforge.net/DTD/sodipodi-0.dtd"
   xmlns:inkscape="http://www.inkscape.org/namespaces/inkscape"
   version="1.1"
   id="Layer_1"
   x="0px"
   y="0px"
   width="32px"
   height="32px"
   viewBox="0 0 32 32"
   enable-background="new 0 0 32 32"
   xml:space="preserve"
   inkscape:version="0.91 r13725"
   sodipodi:docname="GitHub_logo.svg"><metadata
     id="metadata9"><rdf:RDF><cc:Work
         rdf:about=""><dc:format>image/svg+xml</dc:format><dc:type
           rdf:resource="http://purl.org/dc/dcmitype/StillImage" /><dc:title /></cc:Work></rdf:RDF></metadata><defs
     id="defs7" /><sodipodi:namedview
     pagecolor="#ffffff"
     bordercolor="#666666"
     borderopacity="1"
     objecttolerance="10"
     gridtolerance="10"
     guidetolerance="10"
     inkscape:pageopacity="0"
     inkscape:pageshadow="2"
     inkscape:window-width="1920"
     inkscape:window-height="1017"
     id="namedview5"
     showgrid="false"
     inkscape:zoom="7.375"
     inkscape:cx="16"
     inkscape:cy="16"
     inkscape:window-x="-8"
     inkscape:window-y="-8"
     inkscape:window-maximized="1"
     inkscape:current-layer="Layer_1" /><path
     d="m 25,-18.384574 c -13.75,0 -25,11.5327596 -25,25.6283544 0,11.3725826 7.1875,20.9832146 17.03125,24.3469366 1.25,0.160177 1.71875,-0.480532 1.71875,-1.281418 0,-0.640709 0,-2.242481 0,-4.324785 -7.03125,1.601773 -8.4375,-3.363721 -8.4375,-3.363721 C 9.21875,19.737603 7.5,18.936717 7.5,18.936717 5.15625,17.334945 7.65625,17.334945 7.65625,17.334945 c 2.5,0.160177 3.90625,2.562835 3.90625,2.562835 2.1875,3.844253 5.78125,2.723013 7.34375,2.082304 0.15625,-1.601772 0.9375,-2.723013 1.5625,-3.363721 C 14.84375,17.975654 9.0625,15.733173 9.0625,5.9623627 9.0625,3.2393501 10,0.83669184 11.5625,-0.92525752 11.25,-1.5659664 10.46875,-4.1288018 11.875,-7.6527005 c 0,0 2.03125,-0.6407089 6.875,2.5628354 2.03125,-0.6407088 4.0625,-0.8008861 6.25,-0.8008861 2.1875,0 4.21875,0.3203545 6.25,0.8008861 4.84375,-3.3637215 6.875,-2.7230126 6.875,-2.7230126 1.40625,3.5238987 0.46875,6.0867341 0.3125,6.727443 1.5625,1.76194933 2.5,4.0044303 2.5,6.8876202 0,9.7708105 -5.78125,12.0132915 -11.40625,12.6539995 0.9375,0.800886 1.71875,2.402659 1.71875,4.805317 0,3.363721 0,6.246911 0,7.047797 0,0.640709 0.46875,1.441595 1.71875,1.281418 C 42.8125,28.226995 50,18.616363 50,7.2437804 50,-6.8518144 38.75,-18.384574 25,-18.384574 Z"
     id="path3"
     style="clip-rule:evenodd;fill:#800080;fill-rule:evenodd"
     inkscape:connector-curvature="0" /></svg>