<?xml version="1.0" encoding="UTF-8" standalone="no"?>
<!-- Generator: Adobe Illustrator 18.1.1, SVG Export Plug-In . SVG Version: 6.00 Build 0)  -->

<svg
   xmlns:dc="http://purl.org/dc/elements/1.1/"
   xmlns:cc="http://creativecommons.org/ns#"
   xmlns:rdf="http://www.w3.org/1999/02/22-rdf-syntax-ns#"
   xmlns:svg="http://www.w3.org/2000/svg"
   xmlns="http://www.w3.org/2000/svg"
   xmlns:sodipodi="http://sodipodi.sourceforge.net/DTD/sodipodi-0.dtd"
   xmlns:inkscape="http://www.inkscape.org/namespaces/inkscape"
   version="1.1"
   id="Layer_1"
   x="0px"
   y="0px"
   width="32px"
   height="32px"
   viewBox="0 0 32 32"
   enable-background="new 0 0 32 32"
   xml:space="preserve"
   inkscape:version="0.91 r13725"
   sodipodi:docname="Google_logo.svg"><metadata
     id="metadata11"><rdf:RDF><cc:Work
         rdf:about=""><dc:format>image/svg+xml</dc:format><dc:type
           rdf:resource="http://purl.org/dc/dcmitype/StillImage" /><dc:title /></cc:Work></rdf:RDF></metadata><defs
     id="defs9" /><sodipodi:namedview
     pagecolor="#ffffff"
     bordercolor="#666666"
     borderopacity="1"
     objecttolerance="10"
     gridtolerance="10"
     guidetolerance="10"
     inkscape:pageopacity="0"
     inkscape:pageshadow="2"
     inkscape:window-width="1920"
     inkscape:window-height="1017"
     id="namedview7"
     showgrid="false"
     inkscape:zoom="7.375"
     inkscape:cx="16"
     inkscape:cy="16"
     inkscape:window-x="-8"
     inkscape:window-y="-8"
     inkscape:window-maximized="1"
     inkscape:current-layer="Layer_1" /><path
     d="m 22.968751,-16.935136 c 0.468749,0.337838 0.78125,0.675677 1.40625,1.182434 0.468748,0.506756 0.9375,1.182432 1.406249,1.858107 0.468751,0.675676 0.78125,1.52027 1.09375,2.533784 0.312502,1.013514 0.46875,2.0270268 0.46875,3.3783785 0,2.3648651 -0.46875,4.2229731 -1.5625,5.7432429 -0.468749,0.6756755 -0.937501,1.35135114 -1.5625,1.8581087 -0.624999,0.50675585 -1.249999,1.1824331 -1.875,1.689189 -0.312499,0.3378378 -0.78125,0.8445953 -1.093749,1.3513512 -0.3125,0.5067575 -0.625002,1.1824331 -0.625002,1.8581087 0,0.6756756 0.156253,1.1824315 0.625002,1.689189 0.312499,0.5067559 0.624999,0.8445937 0.937501,1.1824315 l 2.187499,1.8581087 c 1.406249,1.1824328 2.499999,2.3648648 3.4375,3.7162158 0.9375,1.351351 1.40625,3.20946 1.40625,5.405407 0,3.209457 -1.40625,6.08108 -4.0625,8.445944 C 22.34375,29.348649 18.28125,30.7 12.96875,30.7 8.59375,30.7 5.3125002,29.686487 3.1250002,27.828378 1.0937501,26.139189 0,24.112162 0,21.578377 c 0,-1.182431 0.31250002,-2.533782 1.0937501,-4.054052 0.6249998,-1.52027 2.0312501,-2.871623 3.75,-3.885136 C 6.8750001,12.456757 9.0625,11.612162 11.25,11.274324 13.4375,10.936486 15.3125,10.767568 16.875001,10.767568 16.406249,10.091893 15.937501,9.4162169 15.625,8.7405413 15.156251,8.0648641 15,7.2202704 15,6.206757 15,5.6999995 15.156251,5.1932436 15.3125,4.6864861 15.468751,4.3486483 15.625,3.8418924 15.625,3.5040546 c -0.78125,0.168918 -1.40625,0.168918 -2.03125,0.168918 -3.4375,0 -5.9374998,-1.1824314 -7.65625,-3.37837793 C 4.0625002,-1.7324321 3.1250002,-4.0972973 3.1250002,-6.8 c 0,-3.209459 1.2499999,-6.25 3.9062499,-8.783783 C 8.75,-17.104054 10.625,-18.117568 12.65625,-18.624324 14.531251,-18.962162 16.406249,-19.3 18.125,-19.3 l 12.65625,0 -3.90625,2.364864 -3.906249,0 z m 2.34375,38.006758 c 0,-1.689189 -0.468752,-3.20946 -1.5625,-4.391892 -1.093751,-1.182433 -2.8125,-2.702704 -5.156251,-4.391892 -0.46875,0 -0.9375,0 -1.406251,0 -0.312498,0 -1.093748,0 -2.499999,0.168919 -1.25,0.168918 -2.65625,0.506756 -4.0625,1.013514 -0.312499,0.168918 -0.78125,0.337837 -1.40625,0.506755 -0.625,0.337838 -1.2499999,0.675676 -1.7187498,1.182433 -0.6250001,0.506758 -1.09375,1.182433 -1.4062501,2.027028 -0.46875,0.844595 -0.6249999,1.858108 -0.6249999,3.040539 0,2.364866 0.9375,4.222974 2.9687498,5.743245 1.875001,1.520269 4.53125,2.195945 7.812501,2.364865 2.968749,0 5.312499,-0.675677 6.874999,-2.027028 1.406251,-1.52027 2.187501,-3.209459 2.187501,-5.236486 z M 16.562499,1.8148656 c 1.718751,0 3.125002,-0.6756756 4.21875,-1.85810874 0.468752,-0.84459532 0.937501,-1.68918896 1.093751,-2.53378436 0,-1.013513 0,-1.6891886 0,-2.3648644 0,-2.5337837 -0.624999,-5.2364861 -1.875,-7.9391891 -0.624999,-1.351351 -1.40625,-2.364865 -2.34375,-3.04054 -0.9375,-0.675677 -2.1875,-1.182433 -3.4375,-1.182433 -1.71875,0 -3.125,0.844595 -4.21875,2.195946 -1.09375,1.52027 -1.5625,3.04054 -1.5625,4.898649 0,2.3648646 0.78125,4.8986483 2.03125,7.4324315 0.625,1.1824332 1.40625,2.1959466 2.5,3.04054025 1.09375,0.84459535 2.187501,1.35135285 3.593749,1.35135285 z"
     id="path3"
     style="fill:#d40000"
     inkscape:connector-curvature="0" /><path
     d="m 50,4.1797302 -6.249999,0 0,-6.7567577 -3.124999,0 0,6.7567577 -6.250001,0 0,3.378378 6.250001,0 0,6.7567558 3.124999,0 0,-6.7567558 6.249999,0 0,-3.378378 z"
     id="path5"
     style="fill:#d40000"
     inkscape:connector-curvature="0" /></svg>